<?xml version="1.0" standalone="no"?>
<!DOCTYPE svg PUBLIC "-//W3C//DTD SVG 20010904//EN"
 "http://www.w3.org/TR/2001/REC-SVG-20010904/DTD/svg10.dtd">
<svg version="1.0" xmlns="http://www.w3.org/2000/svg"
 width="300.000000pt" height="244.000000pt" viewBox="0 0 300.000000 244.000000"
 preserveAspectRatio="xMidYMid meet">
<metadata>
Created by potrace 1.10, written by Peter Selinger 2001-2011
</metadata>
<g transform="translate(0.000000,244.000000) scale(0.100000,-0.100000)"
fill="#000000" stroke="none">
<path d="M2968 2353 c-2 -16 -5 -414 -6 -885 -2 -603 0 -858 7 -858 8 0 11
265 11 885 0 487 -2 885 -4 885 -2 0 -5 -12 -8 -27z"/>
<path d="M811 2064 c-20 -26 -21 -38 -21 -348 l0 -321 -77 3 c-99 5 -179 -5
-198 -24 -23 -23 -23 -1015 0 -1038 8 -8 15 -22 15 -31 0 -8 10 -20 23 -25 31
-13 501 -111 562 -117 46 -4 218 11 1109 98 171 16 316 35 323 41 32 26 10 35
-149 61 -90 15 -182 27 -205 27 -52 0 -63 16 -64 97 0 32 -6 93 -13 137 -12
75 -12 79 6 84 16 4 19 15 20 71 3 253 10 378 23 407 18 38 17 118 -1 163 -8
18 -14 53 -14 77 0 40 2 44 24 44 14 0 28 5 31 10 3 6 -3 10 -14 10 -18 0 -21
6 -21 38 0 20 9 52 20 70 28 46 26 87 -7 120 -27 26 -27 29 -24 134 3 115 -9
172 -39 188 -24 13 -126 18 -709 35 -635 19 -575 20 -600 -11z m844 -15 c435
-13 440 -13 463 -36 12 -12 22 -31 22 -43 0 -19 -6 -20 -112 -20 -62 0 -318 7
-568 15 -250 8 -499 15 -552 15 l-98 0 0 26 c0 14 5 35 11 46 11 20 16 21 203
15 105 -3 389 -12 631 -18z m-136 -104 c271 -8 522 -15 557 -15 l64 0 0 -90
c0 -87 -1 -90 -22 -90 -37 0 -51 -14 -42 -41 4 -13 6 -58 5 -100 -3 -73 -1
-78 28 -112 21 -24 31 -45 31 -68 l0 -33 -32 35 c-18 19 -46 44 -63 56 l-30
22 22 39 c17 30 21 52 19 93 -4 91 -34 119 -110 105 -49 -9 -60 -28 -63 -114
-3 -59 0 -79 14 -94 23 -26 11 -32 -26 -14 -16 9 -45 18 -63 19 -29 3 -40 14
-86 83 -80 121 -82 154 -9 154 50 0 57 4 50 31 -5 18 -15 19 -174 19 l-169 0
0 -30 0 -31 61 7 c58 6 61 6 90 -24 24 -25 35 -50 50 -117 17 -82 63 -185 81
-185 4 0 8 -6 8 -14 0 -14 38 -50 74 -71 13 -7 16 -17 11 -38 l-7 -27 -158 0
c-87 0 -172 -3 -189 -6 l-31 -6 0 -174 0 -174 163 2 c145 3 164 1 183 -15 19
-16 20 -24 12 -59 -5 -23 -7 -50 -6 -62 3 -21 -1 -21 -187 -28 -104 -3 -313
-8 -463 -10 -261 -3 -274 -2 -288 16 -12 17 -14 114 -14 604 l0 584 108 -7
c59 -3 329 -12 601 -20z m127 -178 c-6 -39 -2 -49 47 -127 l53 -85 -25 -38
-25 -38 -17 33 c-10 18 -28 75 -39 126 -17 73 -27 96 -46 109 -31 20 -31 33 1
33 14 0 25 -5 25 -11 0 -5 4 -8 9 -5 5 3 7 15 4 26 -3 12 0 20 7 20 9 0 10
-12 6 -43z m515 -91 c9 -18 7 -32 -11 -66 -19 -37 -24 -41 -32 -26 -14 25 0
116 18 116 8 0 19 -11 25 -24z m-200 -18 c22 1 25 -3 26 -34 1 -19 7 -41 13
-49 7 -9 10 -27 6 -45 -4 -22 -1 -32 9 -36 23 -9 18 -22 -15 -39 -37 -19 -84
-19 -100 0 -15 18 -6 45 14 45 22 0 25 23 4 40 -19 16 -22 31 -20 94 2 32 5
37 20 30 9 -4 28 -7 43 -6z m-217 -158 c-28 -42 -53 -55 -33 -17 15 29 40 57
51 57 4 0 -4 -18 -18 -40z m84 -40 c1 -19 -2 -41 -7 -49 -8 -12 -13 -12 -35 3
-29 18 -32 36 -13 66 20 33 52 22 55 -20z m71 -42 c16 -17 19 -17 31 -3 11 13
15 13 21 3 6 -10 12 -8 23 7 22 30 30 11 10 -26 -13 -25 -17 -57 -16 -128 1
-87 -7 -121 -28 -121 -4 0 -10 9 -13 21 -4 16 -11 19 -26 14 -23 -7 -23 -5 -2
143 5 28 5 52 1 52 -11 0 -18 -35 -26 -128 -4 -45 -11 -85 -15 -88 -5 -3 -5
-13 0 -22 5 -10 5 -41 1 -72 -17 -112 -30 -226 -30 -266 0 -50 -8 -59 -32 -37
-28 26 -20 138 12 146 15 4 18 25 23 173 4 93 11 201 17 239 7 39 11 88 11
109 0 49 13 72 17 32 2 -16 12 -37 21 -48z m195 -30 c23 -32 20 -55 -9 -74
-24 -16 -27 -16 -45 1 -22 20 -26 65 -10 96 13 23 39 13 64 -23z m-1304 -28
c0 -19 -7 -20 -99 -20 -68 0 -102 -4 -109 -13 -8 -9 -9 -153 -5 -475 l6 -462
41 0 c23 0 88 4 146 10 58 5 242 19 410 30 168 11 381 27 474 35 93 8 173 12
178 9 4 -3 8 -14 8 -25 0 -14 -7 -19 -26 -19 -55 0 -1182 -88 -1234 -96 -29
-5 -38 -2 -43 10 -4 10 -6 242 -4 517 2 432 4 501 17 509 8 5 66 10 128 10
105 0 112 -1 112 -20z m1252 -98 c-19 -5 -52 27 -52 50 0 15 6 13 33 -14 23
-23 29 -34 19 -36z m-1252 33 c0 -24 -2 -25 -76 -25 l-75 0 3 -42 3 -43 73 3
72 3 0 -40 0 -40 -72 -3 -73 -3 -3 -50 c-2 -27 -1 -101 3 -162 l7 -113 74 0
c53 0 82 -5 100 -17 23 -14 60 -16 367 -11 188 3 322 3 297 -1 l-45 -6 -3
-114 -3 -113 113 6 c62 4 135 9 161 12 l48 6 -3 114 c-3 121 2 132 39 92 17
-19 22 -42 28 -139 l7 -115 -254 -17 c-239 -17 -652 -48 -873 -66 -55 -4 -101
-7 -101 -7 -1 1 -5 207 -9 459 l-8 457 102 0 101 0 0 -25z m1375 15 c3 -5 -13
-23 -36 -40 -71 -51 -84 -33 -14 19 47 35 42 34 50 21z m-388 -67 c-3 -27 -10
-101 -17 -165 l-13 -117 -156 -3 c-86 -2 -160 0 -164 3 -5 4 -5 77 -1 162 l7
157 166 3 c91 1 170 4 175 5 5 1 6 -19 3 -45z m379 -37 c-6 -25 -54 -50 -125
-65 -24 -5 -56 -22 -72 -37 -31 -30 -31 -30 -48 3 -15 30 -14 33 13 33 13 0
36 10 52 23 15 12 62 40 103 63 69 37 76 39 79 21 2 -10 1 -29 -2 -41z m-1366
24 l0 -31 -67 3 c-60 3 -68 5 -68 23 0 20 14 24 118 33 13 2 17 -5 17 -28z
m1350 -215 c0 -144 -15 -189 -19 -55 -1 43 -5 101 -10 127 -10 52 -7 63 15 63
11 0 14 -24 14 -135z m-145 48 c4 -26 4 -117 0 -201 -7 -150 -8 -154 -29 -148
-11 3 -27 6 -34 6 -9 0 -12 9 -8 28 3 15 7 80 8 145 3 109 5 119 25 133 19 12
21 18 13 40 -6 14 -8 30 -4 35 12 20 22 7 29 -38z m-1205 -113 l0 -151 -62 3
-63 3 -3 142 -3 142 38 4 c21 2 50 4 66 5 l27 2 0 -150z m1107 103 c13 -31 16
-64 14 -178 -2 -77 -5 -143 -7 -147 -3 -4 -18 -2 -35 4 -29 10 -31 13 -26 47
3 20 11 98 18 174 6 75 13 137 15 137 2 0 11 -17 21 -37z m203 -17 c0 -15 -60
-28 -74 -16 -15 15 5 30 40 30 22 0 34 -5 34 -14z m-23 -67 c14 -14 6 -39 -13
-39 -8 0 -14 10 -14 25 0 27 9 32 27 14z m-6 -140 c3 -30 9 -69 14 -88 5 -26
4 -32 -6 -29 -7 2 -16 15 -19 28 -8 33 -30 38 -30 6 0 -14 -4 -26 -10 -26 -6
0 -10 33 -10 79 0 67 3 80 18 84 31 8 37 1 43 -54z m43 44 c11 -40 11 -146 -1
-150 -11 -4 -14 10 -29 120 -5 38 -3 47 9 47 9 0 18 -8 21 -17z m-417 -110
c-20 -2 -52 -2 -70 0 -17 2 0 4 38 4 39 0 53 -2 32 -4z m49 -76 c-3 -33 -6
-77 -6 -97 l0 -37 -136 -7 c-75 -4 -139 -5 -141 -3 -2 3 30 27 70 54 l75 50
61 -44 c33 -24 61 -39 61 -34 0 6 -22 27 -50 47 -27 20 -50 39 -50 42 0 4 23
22 51 40 28 18 48 36 45 39 -3 3 -30 -11 -60 -31 -30 -20 -57 -36 -60 -36 -3
0 -28 14 -56 31 -28 17 -54 29 -57 26 -3 -4 17 -21 45 -38 l51 -32 -52 -36
c-28 -20 -58 -40 -64 -44 -10 -6 -13 11 -13 77 l0 85 88 4 c48 2 113 3 146 3
l58 1 -6 -60z m143 23 c12 0 20 -7 20 -17 0 -10 0 -45 1 -78 0 -53 -20 -158
-34 -172 -15 -16 -24 19 -30 124 -4 65 -10 129 -13 142 -5 21 -4 22 15 12 11
-6 30 -11 41 -11z m185 -10 c9 0 17 -29 25 -97 7 -54 14 -115 16 -135 8 -63
-20 -47 -60 33 -40 79 -63 199 -38 199 8 0 16 7 20 16 5 15 7 15 15 0 5 -9 15
-16 22 -16z m-84 -7 c6 -108 9 -123 48 -202 l41 -83 -32 6 c-18 4 -58 9 -89
13 -32 3 -58 9 -58 12 0 3 7 28 15 55 17 57 22 127 11 174 -7 32 -7 32 28 32
20 0 36 -3 36 -7z m-150 -283 c0 -5 -17 -10 -38 -10 -36 0 -803 -62 -940 -76
-34 -4 -62 -10 -62 -13 0 -3 71 -19 158 -35 153 -29 160 -29 287 -18 149 14
810 72 840 75 11 0 23 6 28 12 5 7 9 6 15 -2 4 -6 24 -14 45 -18 29 -6 37 -4
37 7 0 8 -12 20 -26 27 -44 20 -22 22 82 6 54 -8 127 -17 162 -21 75 -8 82
-24 10 -24 -29 0 -172 -11 -318 -25 -146 -13 -426 -39 -624 -57 l-358 -32
-274 55 c-151 30 -274 57 -274 60 0 3 51 9 113 12 121 6 859 62 997 76 123 12
140 12 140 1z m164 -3 c56 -10 70 -16 77 -35 6 -16 5 -22 -5 -22 -29 0 -222
-21 -241 -26 -15 -4 -13 0 10 19 16 14 35 22 42 20 8 -3 13 2 13 12 0 13 5 16
23 11 12 -3 49 -8 82 -11 74 -6 34 10 -51 21 -30 3 -54 10 -54 15 0 11 19 11
104 -4z m-201 -39 c-11 -13 -19 -28 -17 -33 3 -7 -119 -21 -332 -39 l-336 -29
-119 19 c-65 10 -117 19 -115 21 3 3 291 29 606 53 140 11 264 22 275 24 11 2
29 4 39 5 19 1 19 0 -1 -21z"/>
<path d="M864 2035 c-4 -9 -2 -21 4 -27 15 -15 44 -1 40 19 -4 23 -36 29 -44
8z"/>
<path d="M964 2035 c-8 -19 3 -35 26 -35 22 0 33 23 17 39 -15 15 -37 14 -43
-4z"/>
<path d="M1070 2034 c-11 -12 -10 -18 3 -32 16 -15 18 -15 34 0 13 14 14 20 3
32 -7 9 -16 16 -20 16 -4 0 -13 -7 -20 -16z"/>
<path d="M887 1933 c-12 -11 -8 -50 6 -61 8 -7 175 -15 478 -22 255 -5 502
-13 549 -16 99 -7 127 5 117 48 l-7 26 -162 6 c-201 7 -878 26 -934 26 -22 0
-44 -3 -47 -7z m51 -30 c-5 -26 -38 -29 -38 -4 0 15 6 21 21 21 14 0 19 -5 17
-17z m630 3 c244 -8 446 -17 449 -20 3 -3 3 -13 -1 -22 -6 -15 -21 -16 -154
-11 -81 4 -309 9 -507 13 -198 3 -366 7 -373 10 -10 3 -10 9 -2 24 13 24 -11
24 588 6z"/>
<path d="M1189 1821 c-24 -19 -24 -20 -5 -38 18 -17 19 -17 12 1 -4 12 0 23
11 31 10 8 15 16 12 19 -3 4 -17 -2 -30 -13z"/>
<path d="M1239 1813 c-8 -21 -6 -30 6 -42 13 -14 15 -13 15 11 0 15 3 33 6 42
3 9 1 16 -5 16 -6 0 -16 -12 -22 -27z"/>
<path d="M1375 1816 c11 -16 13 -26 6 -31 -6 -3 -11 -11 -11 -18 0 -6 7 -4 17
5 14 14 15 22 5 43 -6 14 -16 25 -22 25 -6 0 -3 -11 5 -24z"/>
<path d="M880 1800 c0 -19 7 -20 95 -20 88 0 95 1 95 20 0 19 -7 20 -95 20
-88 0 -95 -1 -95 -20z"/>
<path d="M1080 1813 c0 -16 16 -31 35 -35 14 -2 21 3 23 20 3 19 -1 22 -27 22
-17 0 -31 -3 -31 -7z"/>
<path d="M1287 1806 c-7 -17 18 -42 27 -27 7 11 -3 41 -14 41 -4 0 -10 -6 -13
-14z"/>
<path d="M1338 1808 c-6 -16 1 -38 12 -38 15 0 19 28 6 40 -10 8 -15 7 -18 -2z"/>
<path d="M1833 1809 c-16 -16 -5 -39 18 -39 10 0 19 -5 19 -11 0 -5 5 -7 10
-4 6 3 10 11 10 16 0 6 -5 7 -11 4 -6 -4 -10 -1 -8 6 5 39 -14 52 -38 28z"/>
<path d="M2007 1813 c-4 -3 -7 -15 -7 -25 0 -14 8 -18 40 -18 36 0 40 3 40 25
0 22 -4 25 -33 25 -19 0 -37 -3 -40 -7z"/>
<path d="M1115 1730 c-9 -14 -9 -125 -1 -139 4 -6 15 -11 24 -11 13 0 14 2 4
9 -15 9 -21 95 -9 129 8 22 -6 32 -18 12z"/>
<path d="M1243 1727 c20 -17 24 -116 5 -135 -8 -8 -8 -12 -1 -12 24 0 34 30
31 92 -3 59 -5 63 -28 66 -23 2 -24 1 -7 -11z"/>
<path d="M1730 1675 c0 -22 4 -25 40 -25 36 0 40 3 40 25 0 23 -4 25 -40 25
-36 0 -40 -2 -40 -25z"/>
<path d="M1148 1683 c-6 -32 -2 -63 9 -63 15 0 28 44 18 59 -7 13 -24 15 -27
4z"/>
<path d="M985 1661 c-35 -4 -50 -10 -50 -21 0 -8 8 -15 18 -14 9 0 42 1 72 2
48 2 55 5 55 22 0 21 -3 22 -95 11z"/>
<path d="M1290 1663 c1 -19 19 -35 34 -30 21 8 9 37 -15 37 -10 0 -19 -3 -19
-7z"/>
<path d="M1352 1653 c2 -13 15 -19 42 -21 48 -4 67 3 60 23 -4 11 -20 15 -56
15 -42 0 -49 -3 -46 -17z"/>
<path d="M1472 1653 c2 -10 13 -19 26 -21 17 -3 22 2 22 17 0 16 -6 21 -26 21
-19 0 -25 -5 -22 -17z"/>
<path d="M890 1640 c0 -11 7 -20 15 -20 8 0 15 9 15 20 0 11 -7 20 -15 20 -8
0 -15 -9 -15 -20z"/>
<path d="M1192 1643 c5 -26 38 -29 38 -4 0 15 -6 21 -21 21 -14 0 -19 -5 -17
-17z"/>
<path d="M1493 1573 c-27 -4 -33 -9 -33 -29 0 -21 5 -24 35 -24 32 0 35 2 35
30 0 17 -1 29 -2 28 -2 0 -18 -3 -35 -5z"/>
<path d="M1320 1546 c0 -31 7 -35 48 -29 26 4 32 10 32 29 0 21 -5 24 -40 24
-36 0 -40 -3 -40 -24z"/>
<path d="M1180 1553 c-135 -13 -140 -14 -140 -34 0 -20 4 -20 133 -13 72 3
133 7 134 8 1 1 0 12 -4 24 -6 23 -23 25 -123 15z"/>
<path d="M900 1515 c0 -28 24 -34 34 -9 10 26 7 34 -14 34 -15 0 -20 -7 -20
-25z"/>
<path d="M950 1514 c0 -33 33 -30 38 4 3 17 -2 22 -17 22 -16 0 -21 -6 -21
-26z"/>
<path d="M1386 1454 c-11 -29 -6 -83 10 -98 21 -22 44 -20 44 3 0 13 6 18 18
16 9 -2 21 -4 25 -4 5 -1 6 -5 2 -10 -3 -5 -1 -12 4 -15 5 -3 12 1 15 10 9 24
7 114 -3 114 -5 0 -7 -18 -4 -40 5 -39 5 -40 -23 -40 -22 0 -26 3 -14 10 11 7
5 10 -22 10 -39 0 -46 -8 -27 -27 6 -6 9 -17 6 -25 -3 -8 -9 -3 -18 15 -10 22
-10 35 -2 58 6 16 8 31 3 34 -4 3 -11 -2 -14 -11z"/>
<path d="M1046 1400 c-29 -57 -30 -60 -18 -60 11 0 57 98 50 106 -4 3 -18 -18
-32 -46z"/>
<path d="M1019 1405 c-7 -19 -19 -35 -26 -35 -7 0 -13 -4 -13 -10 0 -25 32 -6
50 30 23 44 24 50 11 50 -5 0 -15 -16 -22 -35z"/>
<path d="M1530 1396 c0 -24 4 -26 41 -26 36 0 40 2 37 23 -2 18 -10 23 -40 25
-35 3 -38 1 -38 -22z"/>
<path d="M1624 1404 c3 -9 6 -20 6 -25 0 -5 9 -9 20 -9 15 0 20 7 20 25 0 20
-5 25 -26 25 -20 0 -25 -4 -20 -16z"/>
<path d="M1107 1403 c-4 -3 -7 -15 -7 -25 0 -13 7 -18 25 -18 20 0 25 5 25 25
0 18 -5 25 -18 25 -10 0 -22 -3 -25 -7z"/>
<path d="M1170 1385 c0 -25 0 -25 95 -25 95 0 95 0 95 25 0 25 0 25 -95 25
-95 0 -95 0 -95 -25z"/>
<path d="M902 1373 c2 -21 9 -27 31 -28 15 0 27 5 27 11 0 7 3 19 6 28 5 13
-1 16 -31 16 -34 0 -36 -2 -33 -27z"/>
<path d="M1028 1283 l-98 -4 0 -180 0 -181 188 7 c103 3 197 8 209 11 22 4 22
5 17 167 -3 89 -7 168 -10 175 -3 12 -56 13 -306 5z m292 -81 c0 -38 3 -111 7
-163 l6 -94 -26 30 c-14 17 -55 53 -91 80 -36 28 -65 52 -66 55 0 3 34 34 75
69 78 65 107 109 33 49 -24 -19 -62 -49 -85 -68 l-43 -33 -72 55 c-84 64 -102
75 -97 61 4 -10 91 -83 135 -113 21 -15 19 -17 -62 -88 l-84 -73 0 114 c0 63
-3 128 -6 145 l-6 31 83 4 c46 1 132 4 192 5 l107 2 0 -68z m-97 -174 l91 -73
-109 -6 c-163 -9 -255 -10 -254 -1 0 6 169 150 178 152 2 0 44 -33 94 -72z"/>
<path d="M1620 891 c0 -5 6 -11 13 -14 9 -3 9 -7 -2 -20 -17 -21 -3 -22 24 -1
20 15 20 15 1 30 -23 16 -36 18 -36 5z"/>
<path d="M1237 862 c-13 -14 -14 -21 -5 -30 17 -17 31 -15 24 4 -4 9 -1 23 5
30 17 21 -5 17 -24 -4z"/>
<path d="M1540 865 c0 -12 7 -15 25 -13 14 2 26 8 26 13 0 6 -12 11 -26 13
-18 2 -25 -1 -25 -13z"/>
<path d="M1362 859 c2 -6 7 -10 11 -10 4 1 16 1 28 1 11 0 17 5 14 10 -8 14
-58 13 -53 -1z"/>
<path d="M1270 850 c0 -5 14 -10 30 -10 17 0 30 5 30 10 0 6 -13 10 -30 10
-16 0 -30 -4 -30 -10z"/>
<path d="M1158 733 l-86 -4 -7 -72 c-4 -40 -5 -92 -3 -117 l3 -45 45 1 c25 1
95 5 157 9 l112 7 6 51 c4 29 5 79 3 112 l-3 60 -70 1 c-38 0 -109 -1 -157 -3z
m196 -19 c13 -5 16 -23 16 -95 0 -49 -3 -89 -6 -89 -3 0 -34 19 -69 42 l-63
41 60 44 c33 25 57 47 54 50 -3 3 -33 -15 -67 -39 l-63 -45 -58 41 c-32 22
-60 37 -64 34 -3 -3 20 -24 51 -46 l56 -40 -48 -34 c-26 -18 -52 -36 -57 -40
-6 -4 -8 -9 -5 -12 3 -4 32 12 64 35 57 40 60 41 85 25 14 -9 40 -24 58 -33
17 -9 32 -20 32 -25 0 -4 -35 -8 -79 -8 -43 0 -99 -3 -125 -6 l-46 -7 0 101 0
101 63 4 c120 6 196 7 211 1z"/>
<path d="M811 709 c-79 -5 -145 -10 -146 -11 -2 -2 -5 -52 -6 -113 l-4 -110
140 3 c204 4 186 -8 183 124 -2 64 -7 112 -13 113 -5 1 -75 -2 -154 -6z m149
-107 l0 -99 -97 -6 c-54 -4 -119 -7 -144 -7 l-47 0 5 88 c2 48 6 92 8 99 3 8
35 13 97 16 51 1 112 4 136 5 l42 2 0 -98z"/>
<path d="M883 650 c-28 -22 -57 -40 -63 -40 -6 0 -27 11 -48 23 -58 37 -82 48
-82 39 0 -4 25 -23 55 -41 56 -34 65 -45 43 -54 -24 -10 -100 -69 -95 -74 3
-2 33 14 66 36 33 23 62 41 65 41 3 0 28 -14 57 -30 28 -17 56 -29 62 -27 6 2
-15 18 -48 37 l-58 33 29 21 c46 33 90 75 79 76 -5 0 -33 -18 -62 -40z"/>
<path d="M1440 1253 c0 -6 33 -42 74 -80 l75 -68 -75 -64 c-41 -35 -73 -66
-70 -69 3 -3 39 23 81 57 47 39 80 59 87 55 7 -4 34 -26 61 -47 67 -57 69 -39
1 21 l-56 50 71 68 c39 37 69 69 67 72 -3 2 -39 -26 -81 -63 l-76 -68 -52 49
c-82 78 -107 98 -107 87z"/>
<path d="M2966 581 c-10 -15 -3 -581 6 -581 9 0 15 559 7 579 -5 10 -8 10 -13
2z"/>
<path d="M0 61 c0 -16 102 -61 138 -61 34 1 29 4 -47 35 -95 39 -91 38 -91 26z"/>
</g>
</svg>
