<svg id="visual" viewBox="0 0 900 600" width="900" height="600" xmlns="http://www.w3.org/2000/svg" xmlns:xlink="http://www.w3.org/1999/xlink" version="1.1"><path d="M0 374L16.7 387C33.3 400 66.7 426 100 441.3C133.3 456.7 166.7 461.3 200 439.3C233.3 417.3 266.7 368.7 300 366C333.3 363.3 366.7 406.7 400 411C433.3 415.3 466.7 380.7 500 356.5C533.3 332.3 566.7 318.7 600 337.2C633.3 355.7 666.7 406.3 700 423.5C733.3 440.7 766.7 424.3 800 410.2C833.3 396 866.7 384 883.3 378L900 372L900 601L883.3 601C866.7 601 833.3 601 800 601C766.7 601 733.3 601 700 601C666.7 601 633.3 601 600 601C566.7 601 533.3 601 500 601C466.7 601 433.3 601 400 601C366.7 601 333.3 601 300 601C266.7 601 233.3 601 200 601C166.7 601 133.3 601 100 601C66.7 601 33.3 601 16.7 601L0 601Z" fill="#c7ab97" stroke-linecap="round" stroke-linejoin="miter"></path></svg>